<svg id="mermaid-1617978891736" width="100%" xmlns="http://www.w3.org/2000/svg" xmlns:xlink="http://www.w3.org/1999/xlink" height="218" style="max-width: 603px;" viewBox="-20 -20 603 218"><style>#mermaid-1617978891736{font-family:"trebuchet ms",verdana,arial,sans-serif;font-size:16px;fill:#333;}#mermaid-1617978891736 .error-icon{fill:#552222;}#mermaid-1617978891736 .error-text{fill:#552222;stroke:#552222;}#mermaid-1617978891736 .edge-thickness-normal{stroke-width:2px;}#mermaid-1617978891736 .edge-thickness-thick{stroke-width:3.5px;}#mermaid-1617978891736 .edge-pattern-solid{stroke-dasharray:0;}#mermaid-1617978891736 .edge-pattern-dashed{stroke-dasharray:3;}#mermaid-1617978891736 .edge-pattern-dotted{stroke-dasharray:2;}#mermaid-1617978891736 .marker{fill:#333333;stroke:#333333;}#mermaid-1617978891736 .marker.cross{stroke:#333333;}#mermaid-1617978891736 svg{font-family:"trebuchet ms",verdana,arial,sans-serif;font-size:16px;}#mermaid-1617978891736 g.classGroup text{fill:#9370DB;fill:#131300;stroke:none;font-family:"trebuchet ms",verdana,arial,sans-serif;font-size:10px;}#mermaid-1617978891736 g.classGroup text .title{font-weight:bolder;}#mermaid-1617978891736 .classTitle{font-weight:bolder;}#mermaid-1617978891736 .node rect,#mermaid-1617978891736 .node circle,#mermaid-1617978891736 .node ellipse,#mermaid-1617978891736 .node polygon,#mermaid-1617978891736 .node path{fill:#ECECFF;stroke:#9370DB;stroke-width:1px;}#mermaid-1617978891736 .divider{stroke:#9370DB;stroke:1;}#mermaid-1617978891736 g.clickable{cursor:pointer;}#mermaid-1617978891736 g.classGroup rect{fill:#ECECFF;stroke:#9370DB;}#mermaid-1617978891736 g.classGroup line{stroke:#9370DB;stroke-width:1;}#mermaid-1617978891736 .classLabel .box{stroke:none;stroke-width:0;fill:#ECECFF;opacity:0.5;}#mermaid-1617978891736 .classLabel .label{fill:#9370DB;font-size:10px;}#mermaid-1617978891736 .relation{stroke:#333333;stroke-width:1;fill:none;}#mermaid-1617978891736 .dashed-line{stroke-dasharray:3;}#mermaid-1617978891736 #compositionStart,#mermaid-1617978891736 .composition{fill:#333333 !important;stroke:#333333 !important;stroke-width:1;}#mermaid-1617978891736 #compositionEnd,#mermaid-1617978891736 .composition{fill:#333333 !important;stroke:#333333 !important;stroke-width:1;}#mermaid-1617978891736 #dependencyStart,#mermaid-1617978891736 .dependency{fill:#333333 !important;stroke:#333333 !important;stroke-width:1;}#mermaid-1617978891736 #dependencyStart,#mermaid-1617978891736 .dependency{fill:#333333 !important;stroke:#333333 !important;stroke-width:1;}#mermaid-1617978891736 #extensionStart,#mermaid-1617978891736 .extension{fill:#333333 !important;stroke:#333333 !important;stroke-width:1;}#mermaid-1617978891736 #extensionEnd,#mermaid-1617978891736 .extension{fill:#333333 !important;stroke:#333333 !important;stroke-width:1;}#mermaid-1617978891736 #aggregationStart,#mermaid-1617978891736 .aggregation{fill:#ECECFF !important;stroke:#333333 !important;stroke-width:1;}#mermaid-1617978891736 #aggregationEnd,#mermaid-1617978891736 .aggregation{fill:#ECECFF !important;stroke:#333333 !important;stroke-width:1;}#mermaid-1617978891736 .edgeTerminals{font-size:11px;}#mermaid-1617978891736:root{--mermaid-font-family:"trebuchet ms",verdana,arial,sans-serif;}#mermaid-1617978891736 class{fill:apa;}</style><g></g><defs><marker id="extensionStart" class="extension" refX="0" refY="7" markerWidth="190" markerHeight="240" orient="auto"><path d="M 1,7 L18,13 V 1 Z"></path></marker></defs><defs><marker id="extensionEnd" refX="19" refY="7" markerWidth="20" markerHeight="28" orient="auto"><path d="M 1,1 V 13 L18,7 Z"></path></marker></defs><defs><marker id="compositionStart" class="extension" refX="0" refY="7" markerWidth="190" markerHeight="240" orient="auto"><path d="M 18,7 L9,13 L1,7 L9,1 Z"></path></marker></defs><defs><marker id="compositionEnd" refX="19" refY="7" markerWidth="20" markerHeight="28" orient="auto"><path d="M 18,7 L9,13 L1,7 L9,1 Z"></path></marker></defs><defs><marker id="aggregationStart" class="extension" refX="0" refY="7" markerWidth="190" markerHeight="240" orient="auto"><path d="M 18,7 L9,13 L1,7 L9,1 Z"></path></marker></defs><defs><marker id="aggregationEnd" refX="19" refY="7" markerWidth="20" markerHeight="28" orient="auto"><path d="M 18,7 L9,13 L1,7 L9,1 Z"></path></marker></defs><defs><marker id="dependencyStart" class="extension" refX="0" refY="7" markerWidth="190" markerHeight="240" orient="auto"><path d="M 5,7 L9,13 L1,7 L9,1 Z"></path></marker></defs><defs><marker id="dependencyEnd" refX="19" refY="7" markerWidth="20" markerHeight="28" orient="auto"><path d="M 18,7 L9,13 L14,7 L9,1 Z"></path></marker></defs><g id="classid-MatchMSData-0" class="classGroup" transform="translate(0,137 )"><rect x="0" y="0" width="109" height="41" class=" "></rect><text y="15" x="0"><tspan class="title" x="21.5">MatchMSData</tspan></text><line x1="0" y1="21" y2="21" x2="109"></line><text x="5" y="31" fill="white" class="classText"><tspan x="5">-List &lt;Spectra&gt; data</tspan></text><line x1="0" y1="37" y2="37" x2="109"></line><text x="5" y="52" fill="white" class="classText"></text></g><g id="classid-PandasData-1" class="classGroup" transform="translate(159,137 )"><rect x="0" y="0" width="93" height="41" class=" "></rect><text y="15" x="0"><tspan class="title" x="17">PandasData</tspan></text><line x1="0" y1="21" y2="21" x2="93"></line><text x="5" y="31" fill="white" class="classText"><tspan x="5">-DataFrame data</tspan></text><line x1="0" y1="37" y2="37" x2="93"></line><text x="5" y="52" fill="white" class="classText"></text></g><g id="classid-Data-2" class="classGroup" transform="translate(36,0 )"><rect x="0" y="0" width="155" height="87" class=" "></rect><text y="15" x="0"><tspan x="53">«abstract»</tspan><tspan class="title" dy="10" x="66.5">Data</tspan></text><line x1="0" y1="31" y2="31" x2="155"></line><text x="5" y="41" fill="white" class="classText"></text><line x1="0" y1="36" y2="36" x2="155"></line><text x="5" y="51" fill="white" class="classText"><tspan x="5">+read(string filename)</tspan><tspan x="5" dy="10">+write(string filename)</tspan><tspan x="5" dy="10">+retention_times() : List&lt;float&gt;</tspan><tspan x="5" dy="10">+retention_indices() : List&lt;int&gt;</tspan></text></g><g id="classid-ComputationMethod-3" class="classGroup" transform="translate(300,14.5 )"><rect x="0" y="0" width="240" height="58" class=" "></rect><text y="15" x="0"><tspan x="94">«interface»</tspan><tspan class="title" dy="10" x="72">ComputationMethod</tspan></text><line x1="0" y1="32" y2="32" x2="240"></line><text x="5" y="42" fill="white" class="classText"></text><line x1="0" y1="37" y2="37" x2="240"></line><text x="5" y="52" fill="white" class="classText"><tspan x="5">+compute(Data query, Data reference) : List&lt;int&gt;</tspan></text></g><g id="classid-Kovats-4" class="classGroup" transform="translate(302,142.5 )"><rect x="0" y="0" width="44" height="30" class=" "></rect><text y="15" x="0"><tspan class="title" x="5">Kovats</tspan></text><line x1="0" y1="21" y2="21" x2="44"></line><text x="5" y="31" fill="white" class="classText"></text><line x1="0" y1="26" y2="26" x2="44"></line><text x="5" y="41" fill="white" class="classText"></text></g><g id="classid-Harangi-5" class="classGroup" transform="translate(396,142 )"><rect x="0" y="0" width="48" height="31" class=" "></rect><text y="15" x="0"><tspan class="title" x="5">Harangi</tspan></text><line x1="0" y1="22" y2="22" x2="48"></line><text x="5" y="32" fill="white" class="classText"></text><line x1="0" y1="27" y2="27" x2="48"></line><text x="5" y="42" fill="white" class="classText"></text></g><g id="classid-CubicSpline-6" class="classGroup" transform="translate(494,142 )"><rect x="0" y="0" width="69" height="31" class=" "></rect><text y="15" x="0"><tspan class="title" x="5">CubicSpline</tspan></text><line x1="0" y1="22" y2="22" x2="69"></line><text x="5" y="32" fill="white" class="classText"></text><line x1="0" y1="27" y2="27" x2="69"></line><text x="5" y="42" fill="white" class="classText"></text></g><path d="M76.03284671532847,87L72.4440389294404,91.16666666666667C68.85523114355232,95.33333333333333,61.67761557177616,103.66666666666667,58.08880778588807,112C54.5,120.33333333333333,54.5,128.66666666666666,54.5,132.83333333333334L54.5,137" id="edge0" class="relation" marker-start="url(#extensionStart)"></path><path d="M171.92335766423358,87L177.51946472019463,91.16666666666667C183.1155717761557,95.33333333333333,194.30778588807786,103.66666666666667,199.90389294403894,112C205.5,120.33333333333333,205.5,128.66666666666666,205.5,132.83333333333334L205.5,137" id="edge1" class="relation" marker-start="url(#extensionStart)"></path><path d="M379.35766423357666,72.5L370.13138686131384,79.08333333333333C360.9051094890511,85.66666666666667,342.4525547445255,98.83333333333333,333.22627737226276,110.5C324,122.16666666666667,324,132.33333333333334,324,137.41666666666666L324,142.5" id="edge2" class="relation" marker-start="url(#extensionStart)"></path><path d="M420,72.5L420,79.08333333333333C420,85.66666666666667,420,98.83333333333333,420,110.41666666666667C420,122,420,132,420,137L420,142" id="edge3" class="relation" marker-start="url(#extensionStart)"></path><path d="M465.93430656934305,72.5L476.36192214111924,79.08333333333333C486.7895377128954,85.66666666666667,507.6447688564477,98.83333333333333,518.0723844282238,110.41666666666667C528.5,122,528.5,132,528.5,137L528.5,142" id="edge4" class="relation" marker-start="url(#extensionStart)"></path></svg>