<svg id="mermaid-1617298495038" width="100%" xmlns="http://www.w3.org/2000/svg" xmlns:xlink="http://www.w3.org/1999/xlink" height="356" style="max-width: 782px;" viewBox="-20 -20 782 356"><style>#mermaid-1617298495038{font-family:"trebuchet ms",verdana,arial,sans-serif;font-size:16px;fill:#333;}#mermaid-1617298495038 .error-icon{fill:#552222;}#mermaid-1617298495038 .error-text{fill:#552222;stroke:#552222;}#mermaid-1617298495038 .edge-thickness-normal{stroke-width:2px;}#mermaid-1617298495038 .edge-thickness-thick{stroke-width:3.5px;}#mermaid-1617298495038 .edge-pattern-solid{stroke-dasharray:0;}#mermaid-1617298495038 .edge-pattern-dashed{stroke-dasharray:3;}#mermaid-1617298495038 .edge-pattern-dotted{stroke-dasharray:2;}#mermaid-1617298495038 .marker{fill:#333333;stroke:#333333;}#mermaid-1617298495038 .marker.cross{stroke:#333333;}#mermaid-1617298495038 svg{font-family:"trebuchet ms",verdana,arial,sans-serif;font-size:16px;}#mermaid-1617298495038 g.classGroup text{fill:#9370DB;fill:#131300;stroke:none;font-family:"trebuchet ms",verdana,arial,sans-serif;font-size:10px;}#mermaid-1617298495038 g.classGroup text .title{font-weight:bolder;}#mermaid-1617298495038 .classTitle{font-weight:bolder;}#mermaid-1617298495038 .node rect,#mermaid-1617298495038 .node circle,#mermaid-1617298495038 .node ellipse,#mermaid-1617298495038 .node polygon,#mermaid-1617298495038 .node path{fill:#ECECFF;stroke:#9370DB;stroke-width:1px;}#mermaid-1617298495038 .divider{stroke:#9370DB;stroke:1;}#mermaid-1617298495038 g.clickable{cursor:pointer;}#mermaid-1617298495038 g.classGroup rect{fill:#ECECFF;stroke:#9370DB;}#mermaid-1617298495038 g.classGroup line{stroke:#9370DB;stroke-width:1;}#mermaid-1617298495038 .classLabel .box{stroke:none;stroke-width:0;fill:#ECECFF;opacity:0.5;}#mermaid-1617298495038 .classLabel .label{fill:#9370DB;font-size:10px;}#mermaid-1617298495038 .relation{stroke:#333333;stroke-width:1;fill:none;}#mermaid-1617298495038 .dashed-line{stroke-dasharray:3;}#mermaid-1617298495038 #compositionStart,#mermaid-1617298495038 .composition{fill:#333333 !important;stroke:#333333 !important;stroke-width:1;}#mermaid-1617298495038 #compositionEnd,#mermaid-1617298495038 .composition{fill:#333333 !important;stroke:#333333 !important;stroke-width:1;}#mermaid-1617298495038 #dependencyStart,#mermaid-1617298495038 .dependency{fill:#333333 !important;stroke:#333333 !important;stroke-width:1;}#mermaid-1617298495038 #dependencyStart,#mermaid-1617298495038 .dependency{fill:#333333 !important;stroke:#333333 !important;stroke-width:1;}#mermaid-1617298495038 #extensionStart,#mermaid-1617298495038 .extension{fill:#333333 !important;stroke:#333333 !important;stroke-width:1;}#mermaid-1617298495038 #extensionEnd,#mermaid-1617298495038 .extension{fill:#333333 !important;stroke:#333333 !important;stroke-width:1;}#mermaid-1617298495038 #aggregationStart,#mermaid-1617298495038 .aggregation{fill:#ECECFF !important;stroke:#333333 !important;stroke-width:1;}#mermaid-1617298495038 #aggregationEnd,#mermaid-1617298495038 .aggregation{fill:#ECECFF !important;stroke:#333333 !important;stroke-width:1;}#mermaid-1617298495038 .edgeTerminals{font-size:11px;}#mermaid-1617298495038:root{--mermaid-font-family:"trebuchet ms",verdana,arial,sans-serif;}#mermaid-1617298495038 class{fill:apa;}</style><g></g><defs><marker id="extensionStart" class="extension" refX="0" refY="7" markerWidth="190" markerHeight="240" orient="auto"><path d="M 1,7 L18,13 V 1 Z"></path></marker></defs><defs><marker id="extensionEnd" refX="19" refY="7" markerWidth="20" markerHeight="28" orient="auto"><path d="M 1,1 V 13 L18,7 Z"></path></marker></defs><defs><marker id="compositionStart" class="extension" refX="0" refY="7" markerWidth="190" markerHeight="240" orient="auto"><path d="M 18,7 L9,13 L1,7 L9,1 Z"></path></marker></defs><defs><marker id="compositionEnd" refX="19" refY="7" markerWidth="20" markerHeight="28" orient="auto"><path d="M 18,7 L9,13 L1,7 L9,1 Z"></path></marker></defs><defs><marker id="aggregationStart" class="extension" refX="0" refY="7" markerWidth="190" markerHeight="240" orient="auto"><path d="M 18,7 L9,13 L1,7 L9,1 Z"></path></marker></defs><defs><marker id="aggregationEnd" refX="19" refY="7" markerWidth="20" markerHeight="28" orient="auto"><path d="M 18,7 L9,13 L1,7 L9,1 Z"></path></marker></defs><defs><marker id="dependencyStart" class="extension" refX="0" refY="7" markerWidth="190" markerHeight="240" orient="auto"><path d="M 5,7 L9,13 L1,7 L9,1 Z"></path></marker></defs><defs><marker id="dependencyEnd" refX="19" refY="7" markerWidth="20" markerHeight="28" orient="auto"><path d="M 18,7 L9,13 L14,7 L9,1 Z"></path></marker></defs><g id="classid-Record-0" class="classGroup" transform="translate(0,18.5 )"><rect x="0" y="0" width="104" height="41" class=" "></rect><text y="15" x="0"><tspan class="title" x="34.5">Record</tspan></text><line x1="0" y1="21" y2="21" x2="104"></line><text x="5" y="31" fill="white" class="classText"><tspan x="5">float retention_time</tspan></text><line x1="0" y1="37" y2="37" x2="104"></line><text x="5" y="52" fill="white" class="classText"></text></g><g id="classid-MatchMSData-1" class="classGroup" transform="translate(31.5,275 )"><rect x="0" y="0" width="109" height="41" class=" "></rect><text y="15" x="0"><tspan class="title" x="21.5">MatchMSData</tspan></text><line x1="0" y1="21" y2="21" x2="109"></line><text x="5" y="31" fill="white" class="classText"><tspan x="5">-List &lt;Spectra&gt; data</tspan></text><line x1="0" y1="37" y2="37" x2="109"></line><text x="5" y="52" fill="white" class="classText"></text></g><g id="classid-PandasData-2" class="classGroup" transform="translate(190.5,275 )"><rect x="0" y="0" width="93" height="41" class=" "></rect><text y="15" x="0"><tspan class="title" x="17">PandasData</tspan></text><line x1="0" y1="21" y2="21" x2="93"></line><text x="5" y="31" fill="white" class="classText"><tspan x="5">-DataFrame data</tspan></text><line x1="0" y1="37" y2="37" x2="93"></line><text x="5" y="52" fill="white" class="classText"></text></g><g id="classid-Data-3" class="classGroup" transform="translate(85,128 )"><rect x="0" y="0" width="153" height="97" class=" "></rect><text y="15" x="0"><tspan x="52">«abstract»</tspan><tspan class="title" dy="10" x="65.5">Data</tspan></text><line x1="0" y1="31" y2="31" x2="153"></line><text x="5" y="41" fill="white" class="classText"></text><line x1="0" y1="36" y2="36" x2="153"></line><text x="5" y="51" fill="white" class="classText"><tspan x="5">+read(string filename)</tspan><tspan x="5" dy="10">+write(string filename)</tspan><tspan x="5" dy="10">+get_rts() : List&lt;float&gt;</tspan><tspan x="5" dy="10">+get_indices() : List&lt;int&gt;</tspan><tspan x="5" dy="10">+set_indices(List&lt;int&gt; indices)</tspan></text></g><g id="classid-DataSet-4" class="classGroup" transform="translate(154,0 )"><rect x="0" y="0" width="153" height="78" class=" "></rect><text y="15" x="0"><tspan class="title" x="57">DataSet</tspan></text><line x1="0" y1="21" y2="21" x2="153"></line><text x="5" y="31" fill="white" class="classText"><tspan x="5">-Data source</tspan></text><line x1="0" y1="37" y2="37" x2="153"></line><text x="5" y="52" fill="white" class="classText"><tspan x="5">+DataSet(Data source)</tspan><tspan x="5" dy="10">+get_rts() : List&lt;float&gt;</tspan><tspan x="5" dy="10">+set_indices(List&lt;int&gt; indices)</tspan></text></g><g id="classid-IndexedDataSet-5" class="classGroup" transform="translate(288,153 )"><rect x="0" y="0" width="128" height="47" class=" "></rect><text y="15" x="0"><tspan class="title" x="25">IndexedDataSet</tspan></text><line x1="0" y1="21" y2="21" x2="128"></line><text x="5" y="31" fill="white" class="classText"></text><line x1="0" y1="26" y2="26" x2="128"></line><text x="5" y="41" fill="white" class="classText"><tspan x="5">+get_indices() : List&lt;int&gt;</tspan></text></g><g id="classid-ComputationMethod-6" class="classGroup" transform="translate(426,10 )"><rect x="0" y="0" width="316" height="58" class=" "></rect><text y="15" x="0"><tspan x="132">«interface»</tspan><tspan class="title" dy="10" x="110">ComputationMethod</tspan></text><line x1="0" y1="32" y2="32" x2="316"></line><text x="5" y="42" fill="white" class="classText"></text><line x1="0" y1="37" y2="37" x2="316"></line><text x="5" y="52" fill="white" class="classText"><tspan x="5">compute(DataSet targets, IndexedDataSet references) : List&lt;int&gt;</tspan></text></g><g id="classid-Kovats-7" class="classGroup" transform="translate(466,161.5 )"><rect x="0" y="0" width="44" height="30" class=" "></rect><text y="15" x="0"><tspan class="title" x="5">Kovats</tspan></text><line x1="0" y1="21" y2="21" x2="44"></line><text x="5" y="31" fill="white" class="classText"></text><line x1="0" y1="26" y2="26" x2="44"></line><text x="5" y="41" fill="white" class="classText"></text></g><g id="classid-Harangi-8" class="classGroup" transform="translate(560,161 )"><rect x="0" y="0" width="48" height="31" class=" "></rect><text y="15" x="0"><tspan class="title" x="5">Harangi</tspan></text><line x1="0" y1="22" y2="22" x2="48"></line><text x="5" y="32" fill="white" class="classText"></text><line x1="0" y1="27" y2="27" x2="48"></line><text x="5" y="42" fill="white" class="classText"></text></g><g id="classid-CubicSpline-9" class="classGroup" transform="translate(658,161 )"><rect x="0" y="0" width="69" height="31" class=" "></rect><text y="15" x="0"><tspan class="title" x="5">CubicSpline</tspan></text><line x1="0" y1="22" y2="22" x2="69"></line><text x="5" y="32" fill="white" class="classText"></text><line x1="0" y1="27" y2="27" x2="69"></line><text x="5" y="42" fill="white" class="classText"></text></g><path d="M111.68027210884354,225L107.40022675736962,229.16666666666666C103.1201814058957,233.33333333333334,94.56009070294785,241.66666666666666,90.28004535147393,250C86,258.3333333333333,86,266.6666666666667,86,270.8333333333333L86,275" id="edge0" class="relation" marker-start="url(#extensionStart)"></path><path d="M211.31972789115645,225L215.59977324263036,229.16666666666666C219.8798185941043,233.33333333333334,228.43990929705214,241.66666666666666,232.71995464852606,250C237,258.3333333333333,237,266.6666666666667,237,270.8333333333333L237,275" id="edge1" class="relation" marker-start="url(#extensionStart)"></path><path d="M188.453125,78L183.9609375,82.16666666666667C179.46875,86.33333333333333,170.484375,94.66666666666667,165.9921875,103C161.5,111.33333333333333,161.5,119.66666666666667,161.5,123.83333333333333L161.5,128" id="edge2" class="relation" marker-start="url(#aggregationStart)"></path><path d="M304.5390625,78L312.44921875,82.16666666666667C320.359375,86.33333333333333,336.1796875,94.66666666666667,344.08984375,107.16666666666667C352,119.66666666666667,352,136.33333333333334,352,144.66666666666666L352,153" id="edge3" class="relation" marker-start="url(#extensionStart)"></path><path d="M540.5,68L531.75,73.83333333333333C523,79.66666666666667,505.5,91.33333333333333,496.75,106.91666666666667C488,122.5,488,142,488,151.75L488,161.5" id="edge4" class="relation" marker-start="url(#extensionStart)"></path><path d="M584,68L584,73.83333333333333C584,79.66666666666667,584,91.33333333333333,584,106.83333333333333C584,122.33333333333333,584,141.66666666666666,584,151.33333333333334L584,161" id="edge5" class="relation" marker-start="url(#extensionStart)"></path><path d="M633.1640625,68L643.0533854166666,73.83333333333333C652.9427083333334,79.66666666666667,672.7213541666666,91.33333333333333,682.6106770833334,106.83333333333333C692.5,122.33333333333333,692.5,141.66666666666666,692.5,151.33333333333334L692.5,161" id="edge6" class="relation" marker-start="url(#extensionStart)"></path></svg>